<svg width="194" height="204" viewBox="0 0 194 204" fill="none" xmlns="http://www.w3.org/2000/svg">
<rect x="5.70002" y="105.535" width="126.32" height="138.618" rx="4.257" transform="rotate(-45.3305 5.70002 105.535)" fill="white"/>
<rect x="5.70002" y="105.535" width="126.32" height="138.618" rx="4.257" transform="rotate(-45.3305 5.70002 105.535)" stroke="#E8E8E8" stroke-width="0.99"/>
<rect x="17.1045" y="106.812" width="111.197" height="7.6032" rx="3.8016" transform="rotate(-45.3305 17.1045 106.812)" fill="#47B944" fill-opacity="0.2"/>
<rect x="25.8887" y="115.496" width="37.2557" height="6.84288" rx="3.42144" transform="rotate(-45.3305 25.8887 115.496)" fill="#E8E8E8"/>
<rect x="57.8467" y="86.6855" width="62.3462" height="1.9008" rx="0.9504" transform="rotate(-45.3305 57.8467 86.6855)" fill="#E8E8E8"/>
<rect x="34.1367" y="123.65" width="62.3462" height="1.9008" rx="0.9504" transform="rotate(-45.3305 34.1367 123.65)" fill="#E8E8E8"/>
<rect x="38.8701" y="128.33" width="62.3462" height="1.9008" rx="0.9504" transform="rotate(-45.3305 38.8701 128.33)" fill="#E8E8E8"/>
<rect x="43.5986" y="133.004" width="89.7178" height="5.7024" rx="2.8512" transform="rotate(-45.3305 43.5986 133.004)" fill="#47B944" fill-opacity="0.1"/>
<rect x="51.0332" y="140.352" width="109.486" height="1.9008" rx="0.9504" transform="rotate(-45.3305 51.0332 140.352)" fill="#E8E8E8"/>
<rect x="55.7666" y="145.031" width="76.032" height="1.9008" rx="0.9504" transform="rotate(-45.3305 55.7666 145.031)" fill="#E8E8E8"/>
<rect x="60.4971" y="149.709" width="89.7178" height="5.7024" rx="2.8512" transform="rotate(-45.3305 60.4971 149.709)" fill="#47B944" fill-opacity="0.25"/>
<rect x="67.9316" y="157.057" width="109.486" height="1.9008" rx="0.9504" transform="rotate(-45.3305 67.9316 157.057)" fill="#E8E8E8"/>
<rect x="72.665" y="161.736" width="37.0656" height="1.9008" rx="0.9504" transform="rotate(-45.3305 72.665 161.736)" fill="#E8E8E8"/>
<rect x="77.3936" y="166.41" width="89.7178" height="5.7024" rx="2.8512" transform="rotate(-45.3305 77.3936 166.41)" fill="#47B944" fill-opacity="0.05"/>
<rect x="84.8271" y="173.76" width="77.9328" height="1.9008" rx="0.9504" transform="rotate(-45.3305 84.8271 173.76)" fill="#E8E8E8"/>
<rect x="89.5615" y="178.439" width="89.7178" height="5.7024" rx="2.8512" transform="rotate(-45.3305 89.5615 178.439)" fill="#E8E8E8"/>
<rect x="96.9951" y="185.787" width="109.486" height="1.9008" rx="0.9504" transform="rotate(-45.3305 96.9951 185.787)" fill="#E8E8E8"/>
<rect x="101.727" y="190.465" width="93.1392" height="1.9008" rx="0.9504" transform="rotate(-45.3305 101.727 190.465)" fill="#E8E8E8"/>
<g clip-path="url(#clip0_1009_159)">
<path d="M61.4182 41.1176L81.3478 34.685L78.9741 27.3307C77.9134 24.0445 79.7301 20.487 83.0096 19.4285L110.195 10.6538C113.479 9.59394 117.028 11.4169 118.089 14.7055L120.463 22.0597L140.392 15.6272C144.294 14.3678 148.55 16.5514 149.813 20.4624L166.841 73.2195C168.103 77.1296 165.929 81.39 162.025 82.6499L83.0511 108.14C79.1516 109.399 74.8915 107.212 73.6307 103.305L56.6022 50.548C55.3411 46.6408 57.5199 42.3759 61.4182 41.1176ZM88.6772 32.3193L113.134 24.4254L111.201 18.4384L86.7448 26.3323L88.6772 32.3193Z" fill="black"/>
<path d="M62.0854 43.1822L141.059 17.6917C141.723 17.4762 142.423 17.3954 143.118 17.4541C143.813 17.5127 144.49 17.7096 145.108 18.0333C146.324 18.6573 147.304 19.7395 147.752 21.127L164.781 73.884C165.233 75.2866 165.07 76.7379 164.444 77.9393C163.823 79.1558 162.744 80.1367 161.359 80.5836L82.385 106.074C81.7217 106.29 81.0219 106.371 80.3266 106.312C79.6313 106.253 78.9546 106.056 78.336 105.732C77.1213 105.109 76.1402 104.026 75.6923 102.639L58.664 49.882C58.2112 48.4794 58.374 47.0281 59.0001 45.8265C59.6216 44.6107 60.7009 43.6291 62.0854 43.1822Z" fill="#774B35"/>
<path d="M62.0854 43.1828L84.9181 35.8131L84.9179 35.8125L118.226 25.0616L118.227 25.0621L141.059 17.6923C141.723 17.4767 142.423 17.3959 143.118 17.4546C143.813 17.5132 144.49 17.7102 145.108 18.034C146.324 18.6579 147.304 19.7401 147.752 21.1276L152.785 36.7198C136.236 54.3125 120.264 80.0184 63.3221 64.3136L58.6642 49.8826C58.448 49.2179 58.3664 48.5168 58.4241 47.8204C58.4817 47.1241 58.6776 46.4464 59.0001 45.8271C59.6216 44.6111 60.7007 43.6297 62.0854 43.1828Z" fill="#955F44"/>
<path d="M62.9979 64.2246C69.9977 66.2586 77.4154 67.5283 84.8408 68.1229C92.7593 68.7569 100.704 68.6272 108.176 67.8409L108.345 70.0785C100.737 70.879 92.6348 71.0101 84.5465 70.3625C76.9342 69.7529 69.3481 68.4567 62.2131 66.3834L62.9979 64.2246ZM154.619 36.4519C150.018 42.3517 144.609 47.8663 138.785 52.8223C132.588 58.0956 125.918 62.7444 119.249 66.5592L118.078 64.6451C124.616 60.9049 131.155 56.3482 137.228 51.1803C142.938 46.321 148.233 40.9262 152.723 35.1674L154.619 36.4519Z" fill="#03040D"/>
<path d="M108.965 59.443L112.533 58.2914C114.603 57.6234 116.814 58.7582 117.483 60.8324L120.495 70.1629C121.164 72.2372 120.034 74.4503 117.964 75.1184L114.396 76.27C112.335 76.9353 110.113 75.7945 109.446 73.7291L106.434 64.3987C105.768 62.3329 106.904 60.1083 108.965 59.443Z" fill="black"/>
<path d="M109.484 61.0574L113.052 59.9058C113.332 59.8145 113.628 59.7796 113.922 59.8032C114.216 59.8267 114.502 59.9081 114.764 60.0428C115.027 60.1775 115.26 60.3628 115.451 60.588C115.642 60.8133 115.786 61.074 115.876 61.3552L118.888 70.6857C118.979 70.9664 119.014 71.2625 118.991 71.5568C118.968 71.851 118.887 72.1378 118.753 72.4005C118.619 72.6632 118.434 72.8967 118.21 73.0875C117.985 73.2784 117.725 73.4229 117.444 73.5126L113.876 74.6643C113.596 74.7555 113.3 74.7904 113.007 74.7668C112.713 74.7433 112.427 74.6618 112.164 74.5271C111.902 74.3924 111.668 74.2071 111.478 73.9819C111.287 73.7567 111.142 73.496 111.052 73.2148L108.041 63.8843C107.949 63.6036 107.914 63.3075 107.937 63.0133C107.96 62.719 108.041 62.4323 108.175 62.1696C108.31 61.9069 108.494 61.6734 108.719 61.4825C108.944 61.2917 109.204 61.1472 109.484 61.0574Z" fill="#FDB735"/>
<path d="M86.9265 33.1621L83.2618 34.345L80.8072 26.7405C80.0709 24.4591 81.3264 22.0007 83.6031 21.2658L110.789 12.4911C113.065 11.7562 115.522 13.0169 116.258 15.2981L118.712 22.9026L115.048 24.0855L112.593 16.4809C112.511 16.2266 112.228 16.0813 111.974 16.1633L84.7884 24.938C84.5344 25.02 84.3898 25.3031 84.472 25.5576L86.9265 33.1621Z" fill="#774B35"/>
</g>
<g clip-path="url(#clip1_1009_159)">
<path d="M21.9975 96.5343L22.651 97.1251C24.1819 98.5106 25.2239 100.354 25.6216 102.38C26.0193 104.406 25.7514 106.507 24.8578 108.368C23.9642 110.23 22.4929 111.753 20.6632 112.709C18.8334 113.666 16.7434 114.006 14.7048 113.678C12.6661 113.35 10.7881 112.372 9.35082 110.89C7.91352 109.407 6.99395 107.5 6.72925 105.452C6.46455 103.404 6.8689 101.326 7.88199 99.5264C8.89509 97.7272 10.4627 96.3037 12.3509 95.4681M16.9685 91.988L17.6574 105.519L13.6 105.723" stroke="#47B944" stroke-width="3.2" stroke-linecap="round" stroke-linejoin="round"/>
</g>
<defs>
<clipPath id="clip0_1009_159">
<rect width="97.9456" height="84.4359" fill="white" transform="translate(50 30.0859) rotate(-17.8885)"/>
</clipPath>
<clipPath id="clip1_1009_159">
<rect width="22.9808" height="22.9808" fill="white" transform="translate(0 105.047) rotate(-47.8859)"/>
</clipPath>
</defs>
</svg>
