<svg width="27" height="29" viewBox="0 0 27 29" fill="none" xmlns="http://www.w3.org/2000/svg">
<g clip-path="url(#clip0_503_186)">
<path d="M17.7576 22.2985C19.7861 22.109 20.9024 21.3456 21.4978 19.8317C21.7125 19.2864 21.8627 18.6493 21.9587 17.8975C21.9587 17.7687 22.0788 17.6396 22.1987 17.6396C22.3189 17.6396 22.4388 17.7687 22.4388 17.8975C22.5349 18.6493 22.6849 19.2864 22.8998 19.8317C23.4938 21.3456 24.6102 22.109 26.6398 22.2985C26.7599 22.2985 26.8799 22.4275 26.8799 22.5563C26.8799 22.6854 26.7599 22.8144 26.6398 22.8144C24.1191 23.3301 22.7988 24.3449 22.4388 27.1817C22.4388 27.3107 22.3189 27.4396 22.1987 27.4396C22.0788 27.4396 21.9587 27.3107 21.9587 27.1817C21.5986 24.3449 20.2783 23.3301 17.7576 22.8144C17.6377 22.8144 17.5176 22.6854 17.5176 22.5563C17.5176 22.4275 17.6377 22.2985 17.7576 22.2985Z" fill="#4C95FB"/>
<path d="M1.05324 13.3839C7.90109 11.9502 10.8559 8.49169 12.2255 1.50468C12.2716 1.31561 12.3763 1.14785 12.5231 1.02758C12.6699 0.907311 12.8506 0.841297 13.037 0.839844C13.2248 0.841406 13.4068 0.908527 13.5541 1.03057C13.7014 1.15262 13.8056 1.32261 13.8502 1.51364C13.8382 1.48676 13.8656 1.52439 13.8502 1.51364C15.2197 8.68163 18.344 11.9502 25.0206 13.3839C25.2478 13.3839 25.4655 13.4782 25.6259 13.6463C25.7866 13.8143 25.8766 14.0422 25.8766 14.2798C25.8766 14.5175 25.7866 14.7454 25.6259 14.9134C25.4655 15.0814 25.2478 15.1758 25.0206 15.1758C18.1728 16.6095 15.2334 19.991 13.8638 26.9798C13.8315 27.1854 13.7308 27.3724 13.5795 27.5078C13.4282 27.6432 13.236 27.7183 13.037 27.7198C12.846 27.718 12.6612 27.6484 12.5129 27.5224C12.3645 27.3964 12.2614 27.2216 12.2204 27.0263C12.2101 27.0121 12.2289 27.0443 12.2204 27.0263C10.8508 19.8583 7.7299 16.6095 1.05324 15.1758C0.826224 15.1758 0.608501 15.0814 0.447975 14.9134C0.287446 14.7454 0.197266 14.5175 0.197266 14.2798C0.197266 14.0422 0.287446 13.8143 0.447975 13.6463C0.608501 13.4782 0.826224 13.3839 1.05324 13.3839Z" fill="#4C95FB"/>
<path d="M0.00201836 5.0407C0.00201836 4.89548 0.102825 4.79868 0.239987 4.77101L0.332528 4.74855C2.2627 4.22128 3.4327 2.9783 3.75825 1.10434C3.75825 1.03419 3.78488 0.966917 3.83231 0.917314C3.87972 0.86771 3.94403 0.839844 4.01109 0.839844V0.846759C4.14989 0.846759 4.24245 0.953941 4.26889 1.0957L4.29036 1.19251C4.79439 3.21168 5.98257 4.43563 7.77392 4.7762C7.84099 4.7762 7.9053 4.80407 7.95271 4.85367C8.00014 4.90328 8.02676 4.97054 8.02676 5.0407H8.02016C8.02016 5.18592 7.9177 5.28272 7.78054 5.31039L7.68965 5.33285C5.75949 5.86012 4.58948 7.1031 4.26393 8.97706C4.26393 9.12228 4.14989 9.24156 4.01109 9.24156V9.23464C3.87227 9.23464 3.77974 9.12745 3.7533 8.98396L3.73016 8.88889C3.22778 6.86972 2.03961 5.64575 0.248249 5.3052C0.215274 5.3052 0.182631 5.29833 0.152229 5.28497C0.121827 5.27162 0.0942747 5.25206 0.0711914 5.22742C0.0481073 5.20279 0.0299554 5.17359 0.0177941 5.14153C0.00563207 5.10946 0.00135907 5.07519 0.00201836 5.0407Z" fill="#4C95FB"/>
</g>
<defs>
<clipPath id="clip0_503_186">
<rect width="26.88" height="28.56" fill="white"/>
</clipPath>
</defs>
</svg>
