<svg width="14" height="15" viewBox="0 0 14 15" fill="none" xmlns="http://www.w3.org/2000/svg">
<g clip-path="url(#clip0_885_167)">
<path d="M12.8797 7.13097V7.64617C12.879 8.85377 12.488 10.0288 11.7649 10.996C11.0419 11.9632 10.0255 12.6708 8.86749 13.0132C7.70945 13.3556 6.47175 13.3144 5.33899 12.8959C4.20623 12.4774 3.23909 11.704 2.58183 10.6909C1.92456 9.67787 1.61237 8.47949 1.69183 7.27451C1.77128 6.06953 2.23812 4.92252 3.02272 4.00453C3.80733 3.08655 4.86765 2.44679 6.04555 2.18066C7.22346 1.91452 8.45584 2.03628 9.55889 2.52777M12.8797 3.16617L7.27969 8.77177L5.59969 7.09177" stroke="#1E1E1E" stroke-width="1.4" stroke-linecap="round" stroke-linejoin="round"/>
</g>
<defs>
<clipPath id="clip0_885_167">
<rect width="13.44" height="13.44" fill="white" transform="translate(0.55957 0.925781)"/>
</clipPath>
</defs>
</svg>
