<svg width="77" height="86" viewBox="0 0 77 86" fill="none" xmlns="http://www.w3.org/2000/svg">
<path d="M17.0667 68.2667H59.7333V59.7333H17.0667V68.2667Z" fill="#AB2FFF"/>
<path d="M59.7333 51.2H17.0667V42.6667H59.7333V51.2Z" fill="#AB2FFF"/>
<path d="M17.0667 34.1333H34.1333V25.6H17.0667V34.1333Z" fill="#AB2FFF"/>
<path fill-rule="evenodd" clip-rule="evenodd" d="M12.8 0C5.73077 0 0 5.73077 0 12.8V72.5333C0 79.6028 5.73077 85.3333 12.8 85.3333H64C71.0694 85.3333 76.8 79.6028 76.8 72.5333V29.8667C76.8 13.3718 63.4283 0 46.9333 0H12.8ZM12.8 8.53333H42.6667V29.8667H68.2667V72.5333C68.2667 74.8898 66.3565 76.8 64 76.8H12.8C10.4436 76.8 8.53333 74.8898 8.53333 72.5333V12.8C8.53333 10.4436 10.4436 8.53333 12.8 8.53333ZM51.2 8.96009C58.0749 10.3556 63.7495 15.0573 66.4917 21.3333H51.2V8.96009Z" fill="#AB2FFF"/>
</svg>
