<svg width="25" height="32" viewBox="0 0 25 32" fill="none" xmlns="http://www.w3.org/2000/svg">
<path d="M23.8798 11.8295V27.6307C23.8798 28.5561 23.5157 29.4436 22.8676 30.0979C22.2195 30.7523 21.3404 31.1199 20.4238 31.1199H4.29584C3.37926 31.1199 2.50021 30.7523 1.85208 30.0979C1.20396 29.4436 0.839844 28.5561 0.839844 27.6307V4.36911C0.839844 3.44371 1.20396 2.55621 1.85208 1.90185C2.50021 1.2475 3.37926 0.879883 4.29584 0.879883H12.7198C13.3307 0.879976 12.6025 1.12497 13.0345 1.56101L23.2052 11.8295C23.6371 12.2657 23.8798 11.2128 23.8798 11.8295Z" fill="#2F80ED" stroke="#2F80ED" stroke-width="1.44" stroke-linejoin="round"/>
<path d="M13.0781 0.879883C13.0781 4.20962 13.0781 9.4062 13.0781 9.4062C13.0781 10.0092 13.3177 10.5875 13.7441 11.0139C14.1705 11.4403 14.7488 11.6799 15.3518 11.6799H23.8781" fill="#56CCF2"/>
<path d="M13.0781 0.879883C13.0781 4.20962 13.0781 9.4062 13.0781 9.4062C13.0781 10.0092 13.3177 10.5875 13.7441 11.0139C14.1705 11.4403 14.7488 11.6799 15.3518 11.6799H23.8781L13.0781 0.879883Z" stroke="#56CCF2" stroke-width="1.44" stroke-linecap="round" stroke-linejoin="round"/>
<path d="M6.8219 27.04H5.21008V22.8509H6.80553C7.23644 22.8509 7.60871 22.9348 7.92235 23.1025C8.23735 23.2689 8.48008 23.5089 8.65053 23.8225C8.82235 24.1348 8.90826 24.5091 8.90826 24.9455C8.90826 25.3819 8.82303 25.7569 8.65258 26.0705C8.48212 26.3828 8.24076 26.6228 7.92849 26.7905C7.61621 26.9569 7.24735 27.04 6.8219 27.04ZM6.34735 26.0746H6.78099C6.98826 26.0746 7.16485 26.0412 7.31076 25.9744C7.45803 25.9075 7.56985 25.7923 7.64621 25.6287C7.72394 25.465 7.7628 25.2373 7.7628 24.9455C7.7628 24.6537 7.72326 24.4259 7.64417 24.2623C7.56644 24.0987 7.4519 23.9834 7.30053 23.9166C7.15053 23.8498 6.96644 23.8164 6.74826 23.8164H6.34735V26.0746ZM13.4926 24.9455C13.4926 25.4119 13.402 25.8053 13.2206 26.1257C13.0392 26.4448 12.7945 26.6869 12.4863 26.8519C12.1781 27.0155 11.8345 27.0973 11.4554 27.0973C11.0735 27.0973 10.7285 27.0148 10.4204 26.8498C10.1135 26.6834 9.86945 26.4407 9.68809 26.1216C9.50809 25.8012 9.41809 25.4091 9.41809 24.9455C9.41809 24.4791 9.50809 24.0864 9.68809 23.7673C9.86945 23.4469 10.1135 23.2048 10.4204 23.0412C10.7285 22.8762 11.0735 22.7937 11.4554 22.7937C11.8345 22.7937 12.1781 22.8762 12.4863 23.0412C12.7945 23.2048 13.0392 23.4469 13.2206 23.7673C13.402 24.0864 13.4926 24.4791 13.4926 24.9455ZM12.3226 24.9455C12.3226 24.6946 12.2892 24.4832 12.2224 24.3114C12.157 24.1382 12.0595 24.0073 11.9299 23.9187C11.8017 23.8287 11.6435 23.7837 11.4554 23.7837C11.2672 23.7837 11.1083 23.8287 10.9788 23.9187C10.8506 24.0073 10.7531 24.1382 10.6863 24.3114C10.6208 24.4832 10.5881 24.6946 10.5881 24.9455C10.5881 25.1964 10.6208 25.4084 10.6863 25.5816C10.7531 25.7534 10.8506 25.8844 10.9788 25.9744C11.1083 26.063 11.2672 26.1073 11.4554 26.1073C11.6435 26.1073 11.8017 26.063 11.9299 25.9744C12.0595 25.8844 12.157 25.7534 12.2224 25.5816C12.2892 25.4084 12.3226 25.1964 12.3226 24.9455ZM17.9297 24.4219H16.7761C16.7679 24.3264 16.7461 24.2398 16.7106 24.1621C16.6766 24.0844 16.6288 24.0175 16.5675 23.9616C16.5075 23.9044 16.4345 23.8607 16.3486 23.8307C16.2627 23.7994 16.1652 23.7837 16.0561 23.7837C15.8652 23.7837 15.7036 23.83 15.5713 23.9228C15.4404 24.0155 15.3409 24.1484 15.2727 24.3216C15.2059 24.4948 15.1725 24.7028 15.1725 24.9455C15.1725 25.2019 15.2066 25.4166 15.2747 25.5898C15.3443 25.7616 15.4445 25.8912 15.5754 25.9784C15.7063 26.0644 15.8638 26.1073 16.0479 26.1073C16.1529 26.1073 16.247 26.0944 16.3302 26.0684C16.4134 26.0412 16.4856 26.0023 16.547 25.9519C16.6084 25.9014 16.6581 25.8407 16.6963 25.7698C16.7359 25.6975 16.7625 25.6164 16.7761 25.5264L17.9297 25.5346C17.9161 25.7119 17.8663 25.8925 17.7804 26.0766C17.6945 26.2594 17.5725 26.4284 17.4143 26.5839C17.2575 26.738 17.0631 26.8621 16.8313 26.9562C16.5995 27.0503 16.3302 27.0973 16.0234 27.0973C15.6388 27.0973 15.2938 27.0148 14.9884 26.8498C14.6843 26.6848 14.4436 26.4421 14.2663 26.1216C14.0904 25.8012 14.0025 25.4091 14.0025 24.9455C14.0025 24.4791 14.0925 24.0864 14.2725 23.7673C14.4525 23.4469 14.6952 23.2048 15.0006 23.0412C15.3061 22.8762 15.647 22.7937 16.0234 22.7937C16.2879 22.7937 16.5313 22.8298 16.7536 22.9021C16.9759 22.9744 17.1709 23.08 17.3386 23.2191C17.5063 23.3569 17.6413 23.5266 17.7436 23.7284C17.8459 23.9303 17.9079 24.1614 17.9297 24.4219ZM19.5354 22.8509L20.2227 24.07H20.2554L20.9509 22.8509H22.2191L20.9672 24.9455L22.2681 27.04H20.9672L20.2554 25.7964H20.2227L19.5109 27.04H18.2181L19.5027 24.9455L18.2591 22.8509H19.5354Z" fill="#F2F2F2"/>
</svg>
