<svg width="33" height="30" viewBox="0 0 33 30" fill="none" xmlns="http://www.w3.org/2000/svg">
<path d="M23.0399 19.7512L24.8177 17.9734C25.0955 17.6957 25.5788 17.8901 25.5788 18.2901V26.3679C25.5788 27.8401 24.3844 29.0346 22.9122 29.0346H3.35661C1.88439 29.0346 0.689941 27.8401 0.689941 26.3679V6.81233C0.689941 5.3401 1.88439 4.14566 3.35661 4.14566H18.5511C18.9455 4.14566 19.1455 4.62344 18.8677 4.90677L17.0899 6.68455C17.0066 6.76788 16.8955 6.81233 16.7733 6.81233H3.35661V26.3679H22.9122V20.0623C22.9122 19.9457 22.9566 19.8346 23.0399 19.7512ZM31.7399 8.5401L17.1511 23.129L12.1288 23.6846C10.6733 23.8457 9.43439 22.6179 9.5955 21.1512L10.1511 16.129L24.7399 1.5401C26.0122 0.267882 28.0677 0.267882 29.3344 1.5401L31.7344 3.9401C33.0066 5.21233 33.0066 7.27344 31.7399 8.5401ZM26.2511 10.2568L23.0233 7.02899L12.7011 17.3568L12.2955 20.9846L15.9233 20.579L26.2511 10.2568ZM29.8511 5.82899L27.4511 3.42899C27.2233 3.20122 26.8511 3.20122 26.6288 3.42899L24.9122 5.14566L28.1399 8.37344L29.8566 6.65677C30.0788 6.42344 30.0788 6.05677 29.8511 5.82899Z" fill="#336EE7"/>
</svg>
