<svg width="134" height="84" viewBox="0 0 134 84" fill="none" xmlns="http://www.w3.org/2000/svg">
<path d="M116.716 9.60176C118.923 9.60922 121.036 10.5865 122.59 12.3186C124.144 14.0507 125.013 16.3957 125.004 18.8378L124.849 64.8776C124.84 67.3197 123.956 69.6588 122.39 71.3803C120.824 73.1019 118.705 74.0649 116.499 74.0574L16.6694 73.7198C14.463 73.7124 12.3503 72.7351 10.796 71.003C9.24172 69.2709 8.37317 66.9259 8.38142 64.4838L8.5371 18.444C8.54536 16.0019 9.42975 13.6628 10.9957 11.9413C12.5617 10.2197 14.681 9.25675 16.8873 9.26421L116.716 9.60176ZM16.9185 0.0562587C12.5057 0.041338 8.26719 1.96727 5.13525 5.41037C2.0033 8.85347 0.234519 13.5317 0.218004 18.4159L0.0623296 64.4556C0.0458147 69.3398 1.78292 74.0299 4.89151 77.4941C8.0001 80.9583 12.2255 82.9129 16.6382 82.9278L116.467 83.2653C120.88 83.2803 125.119 81.3543 128.251 77.9112C131.383 74.4681 133.151 69.7899 133.168 64.9057L133.324 18.866C133.34 13.9818 131.603 9.29168 128.494 5.82748C125.386 2.36328 121.16 0.408732 116.748 0.393811L16.9185 0.0562587Z" fill="#336EE7"/>
<path d="M108.234 57.9154C108.236 57.3048 108.457 56.7201 108.849 56.2897C109.24 55.8593 109.77 55.6185 110.321 55.6204L114.481 55.6345C115.033 55.6363 115.561 55.8806 115.949 56.3137C116.338 56.7467 116.555 57.333 116.553 57.9435L116.537 62.5475C116.535 63.158 116.314 63.7428 115.923 64.1731C115.531 64.6035 115.001 64.8443 114.45 64.8424L110.29 64.8283C109.739 64.8265 109.211 64.5822 108.822 64.1491C108.433 63.7161 108.216 63.1299 108.218 62.5193L108.234 57.9154ZM108.296 39.4995C108.298 38.8889 108.519 38.3042 108.911 37.8738C109.302 37.4434 109.832 37.2026 110.384 37.2045L114.543 37.2186C115.095 37.2204 115.623 37.4648 116.012 37.8978C116.4 38.3308 116.617 38.9171 116.615 39.5276L116.6 44.1316C116.598 44.7421 116.377 45.3269 115.985 45.7573C115.594 46.1876 115.064 46.4284 114.512 46.4265L110.353 46.4125C109.801 46.4106 109.273 46.1663 108.884 45.7332C108.496 45.3002 108.279 44.714 108.281 44.1034L108.296 39.4995ZM66.7007 39.3588C66.7028 38.7483 66.9239 38.1635 67.3154 37.7331C67.7069 37.3027 68.2367 37.062 68.7883 37.0639L72.9478 37.0779C73.4994 37.0798 74.0276 37.3241 74.4162 37.7571C74.8047 38.1902 75.0219 38.7764 75.0198 39.3869L75.0042 43.9909C75.0022 44.6014 74.7811 45.1862 74.3896 45.6166C73.9981 46.047 73.4683 46.2877 72.9167 46.2859L68.7571 46.2718C68.2055 46.2699 67.6774 46.0256 67.2888 45.5926C66.9002 45.1596 66.6831 44.5733 66.6851 43.9628L66.7007 39.3588ZM83.3389 39.4151C83.341 38.8045 83.5621 38.2198 83.9535 37.7894C84.345 37.359 84.8749 37.1183 85.4264 37.1201L97.9051 37.1623C98.4567 37.1642 98.9849 37.4085 99.3734 37.8415C99.762 38.2745 99.9791 38.8608 99.9771 39.4713L99.9615 44.0753C99.9594 44.6858 99.7384 45.2706 99.3469 45.701C98.9554 46.1314 98.4255 46.3721 97.874 46.3703L85.3953 46.3281C84.8437 46.3262 84.3155 46.0819 83.927 45.6489C83.5384 45.2158 83.3213 44.6296 83.3233 44.019L83.3389 39.4151ZM91.5957 57.8591C91.5978 57.2486 91.8189 56.6638 92.2104 56.2334C92.6019 55.803 93.1317 55.5623 93.6833 55.5641L97.8428 55.5782C98.3944 55.5801 98.9226 55.8244 99.3112 56.2574C99.6997 56.6904 99.9169 57.2767 99.9148 57.8872L99.8992 62.4912C99.8972 63.1017 99.6761 63.6865 99.2846 64.1169C98.8931 64.5473 98.3633 64.788 97.8117 64.7862L93.6521 64.7721C93.1005 64.7702 92.5724 64.5259 92.1838 64.0929C91.7952 63.6599 91.5781 63.0736 91.5801 62.4631L91.5957 57.8591ZM50.0625 39.3026C50.0646 38.692 50.2857 38.1073 50.6772 37.6769C51.0687 37.2465 51.5985 37.0057 52.1501 37.0076L56.3096 37.0217C56.8612 37.0235 57.3894 37.2678 57.778 37.7009C58.1665 38.1339 58.3837 38.7202 58.3816 39.3307L58.366 43.9347C58.364 44.5452 58.1429 45.13 57.7514 45.5603C57.3599 45.9907 56.8301 46.2315 56.2785 46.2296L52.1189 46.2155C51.5673 46.2137 51.0392 45.9694 50.6506 45.5363C50.262 45.1033 50.0449 44.5171 50.0469 43.9065L50.0625 39.3026ZM33.4243 39.2463C33.4264 38.6358 33.6475 38.051 34.039 37.6206C34.4305 37.1902 34.9603 36.9495 35.5119 36.9513L39.6714 36.9654C40.223 36.9673 40.7512 37.2116 41.1398 37.6446C41.5283 38.0776 41.7455 38.6639 41.7434 39.2744L41.7279 43.8784C41.7258 44.4889 41.5047 45.0737 41.1132 45.5041C40.7217 45.9345 40.1919 46.1752 39.6403 46.1734L35.4807 46.1593C34.9292 46.1574 34.401 45.9131 34.0124 45.4801C33.6238 45.0471 33.4067 44.4608 33.4088 43.8503L33.4243 39.2463ZM16.7861 39.19C16.7882 38.5795 17.0093 37.9947 17.4008 37.5643C17.7923 37.134 18.3221 36.8932 18.8737 36.8951L23.0332 36.9091C23.5848 36.911 24.113 37.1553 24.5016 37.5884C24.8902 38.0214 25.1073 38.6076 25.1052 39.2182L25.0897 43.8221C25.0876 44.4327 24.8665 45.0174 24.475 45.4478C24.0835 45.8782 23.5537 46.119 23.0021 46.1171L18.8426 46.103C18.291 46.1012 17.7628 45.8568 17.3742 45.4238C16.9856 44.9908 16.7685 44.4045 16.7706 43.794L16.7861 39.19ZM108.358 21.0836C108.361 20.473 108.582 19.8883 108.973 19.4579C109.365 19.0275 109.894 18.7867 110.446 18.7886L114.606 18.8027C115.157 18.8045 115.685 19.0489 116.074 19.4819C116.462 19.9149 116.68 20.5012 116.678 21.1117L116.662 25.7157C116.66 26.3262 116.439 26.911 116.047 27.3414C115.656 27.7717 115.126 28.0125 114.574 28.0106L110.415 27.9966C109.863 27.9947 109.335 27.7504 108.947 27.3173C108.558 26.8843 108.341 26.2981 108.343 25.6875L108.358 21.0836ZM91.7203 21.0273C91.7223 20.4168 91.9434 19.832 92.3349 19.4016C92.7264 18.9712 93.2562 18.7305 93.8078 18.7324L97.9674 18.7464C98.5189 18.7483 99.0471 18.9926 99.4357 19.4256C99.8243 19.8586 100.041 20.4449 100.039 21.0554L100.024 25.6594C100.022 26.2699 99.8006 26.8547 99.4091 27.2851C99.0176 27.7155 98.4878 27.9562 97.9362 27.9544L93.7767 27.9403C93.2251 27.9384 92.6969 27.6941 92.3083 27.2611C91.9198 26.8281 91.7026 26.2418 91.7047 25.6313L91.7203 21.0273ZM75.0821 20.971C75.0841 20.3605 75.3052 19.7757 75.6967 19.3454C76.0882 18.915 76.618 18.6742 77.1696 18.6761L81.3292 18.6902C81.8808 18.692 82.4089 18.9363 82.7975 19.3694C83.1861 19.8024 83.4032 20.3887 83.4012 20.9992L83.3856 25.6031C83.3835 26.2137 83.1624 26.7985 82.7709 27.2288C82.3794 27.6592 81.8496 27.9 81.298 27.8981L77.1385 27.884C76.5869 27.8822 76.0587 27.6379 75.6701 27.2048C75.2816 26.7718 75.0644 26.1855 75.0665 25.575L75.0821 20.971ZM58.4439 20.9148C58.4459 20.3043 58.667 19.7195 59.0585 19.2891C59.45 18.8587 59.9798 18.618 60.5314 18.6198L64.691 18.6339C65.2426 18.6358 65.7708 18.8801 66.1593 19.3131C66.5479 19.7461 66.765 20.3324 66.763 20.9429L66.7474 25.5469C66.7453 26.1574 66.5242 26.7422 66.1328 27.1726C65.7413 27.603 65.2114 27.8437 64.6598 27.8418L60.5003 27.8278C59.9487 27.8259 59.4205 27.5816 59.032 27.1486C58.6434 26.7155 58.4262 26.1293 58.4283 25.5188L58.4439 20.9148ZM41.8057 20.8585C41.8078 20.248 42.0289 19.6632 42.4203 19.2328C42.8118 18.8024 43.3417 18.5617 43.8932 18.5636L48.0528 18.5776C48.6044 18.5795 49.1326 18.8238 49.5211 19.2568C49.9097 19.6899 50.1268 20.2761 50.1248 20.8867L50.1092 25.4906C50.1072 26.1012 49.8861 26.6859 49.4946 27.1163C49.1031 27.5467 48.5733 27.7875 48.0217 27.7856L43.8621 27.7715C43.3105 27.7697 42.7823 27.5253 42.3938 27.0923C42.0052 26.6593 41.7881 26.073 41.7901 25.4625L41.8057 20.8585ZM16.8484 20.7741C16.8505 20.1636 17.0716 19.5788 17.4631 19.1484C17.8546 18.7181 18.3844 18.4773 18.936 18.4792L31.4146 18.5214C31.9662 18.5232 32.4944 18.7676 32.8829 19.2006C33.2715 19.6336 33.4887 20.2199 33.4866 20.8304L33.471 25.4344C33.469 26.0449 33.2479 26.6297 32.8564 27.0601C32.4649 27.4905 31.9351 27.7312 31.3835 27.7293L18.9048 27.6871C18.3532 27.6853 17.8251 27.441 17.4365 27.0079C17.0479 26.5749 16.8308 25.9886 16.8328 25.3781L16.8484 20.7741ZM16.7239 57.6059C16.7259 56.9954 16.947 56.4106 17.3385 55.9802C17.73 55.5499 18.2598 55.3091 18.8114 55.311L22.971 55.325C23.5226 55.3269 24.0507 55.5712 24.4393 56.0043C24.8279 56.4373 25.045 57.0235 25.043 57.6341L25.0274 62.238C25.0253 62.8486 24.8042 63.4333 24.4127 63.8637C24.0212 64.2941 23.4914 64.5349 22.9398 64.533L18.7803 64.5189C18.2287 64.5171 17.7005 64.2727 17.312 63.8397C16.9234 63.4067 16.7062 62.8204 16.7083 62.2099L16.7239 57.6059ZM33.3621 57.6622C33.3641 57.0517 33.5852 56.4669 33.9767 56.0365C34.3682 55.6061 34.898 55.3654 35.4496 55.3672L81.2046 55.5219C81.7562 55.5238 82.2844 55.7681 82.673 56.2012C83.0615 56.6342 83.2787 57.2204 83.2766 57.831L83.2611 62.4349C83.259 63.0455 83.0379 63.6302 82.6464 64.0606C82.2549 64.491 81.7251 64.7318 81.1735 64.7299L35.4185 64.5752C34.8669 64.5733 34.3387 64.329 33.9501 63.896C33.5616 63.463 33.3444 62.8767 33.3465 62.2662L33.3621 57.6622Z" fill="#336EE7"/>
</svg>
