<svg width="32" height="33" viewBox="0 0 32 33" fill="none" xmlns="http://www.w3.org/2000/svg">
<path fill-rule="evenodd" clip-rule="evenodd" d="M4.01303 7.93099C4.01303 7.19462 4.60997 6.59766 5.34636 6.59766H26.6667C27.4031 6.59766 28 7.19462 28 7.93099V23.0299C28 24.5027 26.8061 25.6966 25.3333 25.6966H6.66667C5.19391 25.6966 4 24.5027 4 23.0299V8.36328C4 8.29979 4.00444 8.23734 4.01303 8.1762V7.93099ZM6.66667 10.896V23.0299H25.3333V10.8965L18.8287 17.4011C17.2665 18.9633 14.7339 18.9633 13.1718 17.4011L6.66667 10.896ZM8.76309 9.22119H23.2373L16.9431 15.5155C16.4224 16.0362 15.5781 16.0362 15.0575 15.5155L8.76309 9.22119Z" fill="#9810FA"/>
</svg>
