<svg width="222" height="276" viewBox="0 0 222 276" fill="none" xmlns="http://www.w3.org/2000/svg">
<rect x="47.709" y="30.8223" width="173.568" height="244.736" rx="7.68" fill="white"/>
<circle cx="87.1342" cy="65.6352" r="25.6" fill="#F9DFAF"/>
<rect x="127.068" y="46.6934" width="83.968" height="9.216" rx="4.608" fill="#E8E8E8"/>
<rect x="61.5352" y="121.83" width="120.832" height="7.68" rx="3.84" fill="#E8E8E8"/>
<rect x="127.07" y="61.5391" width="50.176" height="9.216" rx="4.608" fill="#E8E8E8"/>
<rect x="127.071" y="79.4629" width="83.968" height="2.56" rx="1.28" fill="#E8E8E8"/>
<rect x="127.069" y="85.6055" width="83.968" height="2.56" rx="1.28" fill="#E8E8E8"/>
<rect x="127.069" y="91.75" width="83.968" height="2.56" rx="1.28" fill="#E8E8E8"/>
<rect x="63.5811" y="203.877" width="147.456" height="2.56" rx="1.28" fill="#E8E8E8"/>
<rect x="63.5811" y="211.559" width="147.456" height="2.56" rx="1.28" fill="#E8E8E8"/>
<rect x="63.582" y="219.238" width="147.456" height="2.56" rx="1.28" fill="#E8E8E8"/>
<rect x="63.583" y="226.918" width="147.456" height="2.56" rx="1.28" fill="#E8E8E8"/>
<rect x="63.5811" y="234.596" width="147.456" height="2.56" rx="1.28" fill="#E8E8E8"/>
<rect x="63.5811" y="242.277" width="147.456" height="2.56" rx="1.28" fill="#E8E8E8"/>
<path d="M158.519 53.3086L157.397 51.2734H157.082V53.3086H155.769V47.9172H157.973C158.398 47.9172 158.759 47.9915 159.056 48.14C159.358 48.2884 159.584 48.4932 159.732 48.7544C159.88 49.0104 159.955 49.2971 159.955 49.6145C159.955 49.9729 159.852 50.2929 159.648 50.5745C159.448 50.8561 159.151 51.0558 158.757 51.1736L160.001 53.3086H158.519ZM157.082 50.3441H157.896C158.137 50.3441 158.316 50.2852 158.434 50.1675C158.557 50.0497 158.618 49.8833 158.618 49.6683C158.618 49.4635 158.557 49.3022 158.434 49.1844C158.316 49.0667 158.137 49.0078 157.896 49.0078H157.082V50.3441ZM162.092 48.9694V50.06H163.851V51.0737H162.092V52.2564H164.082V53.3086H160.779V47.9172H164.082V48.9694H162.092ZM166.885 53.3624C166.491 53.3624 166.137 53.2984 165.825 53.1704C165.513 53.0424 165.262 52.8529 165.072 52.602C164.888 52.3512 164.791 52.0491 164.781 51.6958H166.178C166.199 51.8955 166.268 52.0491 166.386 52.1566C166.503 52.259 166.657 52.3102 166.846 52.3102C167.041 52.3102 167.195 52.2667 167.307 52.1796C167.42 52.0875 167.476 51.962 167.476 51.8033C167.476 51.6702 167.43 51.5601 167.338 51.4731C167.251 51.386 167.141 51.3144 167.008 51.258C166.88 51.2017 166.695 51.1377 166.455 51.066C166.107 50.9585 165.822 50.851 165.602 50.7435C165.382 50.636 165.193 50.4772 165.034 50.2673C164.875 50.0574 164.796 49.7835 164.796 49.4456C164.796 48.9438 164.978 48.5521 165.341 48.2705C165.705 47.9838 166.178 47.8404 166.762 47.8404C167.356 47.8404 167.835 47.9838 168.198 48.2705C168.562 48.5521 168.756 48.9464 168.782 49.4532H167.361C167.351 49.2792 167.287 49.1435 167.169 49.0462C167.051 48.9438 166.9 48.8926 166.716 48.8926C166.557 48.8926 166.429 48.9361 166.332 49.0232C166.235 49.1051 166.186 49.2254 166.186 49.3841C166.186 49.5582 166.268 49.6939 166.432 49.7912C166.596 49.8884 166.852 49.9934 167.2 50.106C167.548 50.2238 167.829 50.3364 168.045 50.444C168.265 50.5515 168.454 50.7076 168.613 50.9124C168.772 51.1172 168.851 51.3809 168.851 51.7035C168.851 52.0107 168.772 52.2897 168.613 52.5406C168.459 52.7915 168.234 52.9912 167.937 53.1396C167.64 53.2881 167.289 53.3624 166.885 53.3624ZM170.949 47.9172V51.1428C170.949 51.4654 171.029 51.7137 171.187 51.8878C171.346 52.0619 171.579 52.1489 171.886 52.1489C172.194 52.1489 172.429 52.0619 172.593 51.8878C172.757 51.7137 172.839 51.4654 172.839 51.1428V47.9172H174.152V51.1352C174.152 51.6164 174.05 52.0235 173.845 52.3563C173.64 52.6891 173.363 52.94 173.015 53.1089C172.672 53.2779 172.288 53.3624 171.863 53.3624C171.438 53.3624 171.057 53.2804 170.719 53.1166C170.386 52.9476 170.122 52.6968 169.928 52.364C169.733 52.026 169.636 51.6164 169.636 51.1352V47.9172H170.949ZM181.18 47.9172V53.3086H179.866V50.0753L178.661 53.3086H177.601L176.387 50.0676V53.3086H175.074V47.9172H176.625L178.138 51.6497L179.636 47.9172H181.18ZM183.437 48.9694V50.06H185.196V51.0737L183.437 51.0737V52.2564L185.427 52.2564V53.3086L182.124 53.3086V47.9172H185.427V48.9694H183.437Z" fill="black"/>
<rect x="61.5332" y="137.83" width="120.832" height="7.68" rx="3.84" fill="#E8E8E8"/>
<rect x="61.5332" y="153.188" width="120.832" height="7.68" rx="3.84" fill="#E8E8E8"/>
<rect x="61.5332" y="168.449" width="120.832" height="7.68" rx="3.84" fill="#E8E8E8"/>
<path d="M79.8845 87.8691C77.0136 88.0094 74.1027 87.0255 71.9057 85.1719C71.0711 84.4678 70.3178 83.6102 69.9903 82.5686C69.7008 81.648 69.7646 80.6584 69.8314 79.6957C69.0693 81.3532 69.3711 83.4373 70.0157 85.1441C67.466 83.4947 66.6449 80.0238 67.1763 77.0339C67.7077 74.0441 69.3135 71.3761 70.7305 68.6902C72.3347 65.6495 73.7289 62.498 74.8999 59.2655C75.3474 58.0299 75.7684 56.7696 76.4677 55.6571C77.5152 53.9902 80.2263 49.4717 87.5062 49.5001C94.7861 49.5287 98.4084 53.505 99.475 55.9662C100.874 59.1944 106.8 74.9402 107.307 77.1883C107.815 79.4363 107.644 81.9304 106.364 83.8467C106.223 82.2938 105.818 80.5338 105.195 79.1043C105.451 80.5652 105.706 82.0785 105.342 83.516C104.932 85.1351 103.778 86.4671 102.501 87.5436C99.8618 89.7684 96.5325 91.1624 93.0955 91.4817" fill="#AA391C"/>
<path d="M85.9286 86.0637C86.9184 85.6888 87.6798 84.8283 88.0735 83.8458C88.6534 84.5307 89.4585 85.1628 90.2449 85.5951C90.9955 86.0078 91.8973 86.2893 92.7039 86.001C93.44 85.7377 93.9548 85.0332 94.1613 84.2792C94.2852 83.8262 94.3117 83.3561 94.2866 82.8858C93.5166 82.5124 92.9278 82.203 92.6327 81.9893C92.4438 81.8525 92.2717 81.6398 92.113 81.377C90.9281 82.144 89.5466 82.6076 88.1373 82.6954C86.6822 82.7861 85.2058 82.4766 83.9044 81.8204C83.8431 81.8839 83.7807 81.9422 83.7156 81.9893C83.4144 82.2073 82.8077 82.525 82.0146 82.9085C82.0752 83.8838 82.2902 84.8533 82.9711 85.5227C83.7262 86.2648 84.9389 86.4386 85.9286 86.0637Z" fill="white"/>
<path d="M88.1381 82.6971C89.5473 82.6093 90.929 82.1457 92.1138 81.3786C91.9046 81.0318 91.7201 80.5953 91.5593 80.1068C90.8148 77.8449 90.5635 74.5332 90.5635 74.5332L88.175 74.724L85.7865 74.5332C85.7865 74.5332 85.5301 77.907 84.7693 80.1699C84.5327 80.8737 84.2471 81.4684 83.9053 81.8223C85.2067 82.4783 86.683 82.7878 88.1381 82.6971Z" fill="#F89C75"/>
<path d="M105.53 88.8398C104.557 87.404 97.6689 84.5287 94.2867 82.8887C94.3118 83.3592 94.2854 83.8291 94.1614 84.2821C93.9549 85.0361 93.4402 85.7408 92.7041 86.0039C91.8975 86.2922 90.9956 86.0107 90.245 85.598C89.4586 85.1655 88.6536 84.5336 88.0736 83.8487C87.6801 84.8312 86.9187 85.6916 85.9287 86.0666C84.939 86.4415 83.7263 86.2677 82.9714 85.5255C82.2906 84.8562 82.0755 83.8867 82.015 82.9114C78.6163 84.5552 71.7866 87.4105 70.8183 88.8398C69.6243 90.6026 68.9873 93.6536 68.9873 93.6536H88.0152H88.3337L107.362 93.6536C107.361 93.6536 106.724 90.6026 105.53 88.8398Z" fill="#FFD7B4"/>
<path d="M98.7706 62.5701C98.7706 68.5098 94.9099 77.944 88.0157 77.944C81.1214 77.944 77.2607 68.5098 77.2607 62.5701C77.2607 56.6304 82.0759 52.6426 88.0157 52.6426C93.9556 52.6426 98.7706 56.6304 98.7706 62.5701Z" fill="#F89C75"/>
<path d="M79.8887 62.3731C80.1889 61.8249 80.5973 61.3325 81.0706 60.9078C81.5507 60.4908 82.1015 60.1472 82.7003 59.9014C83.2963 59.6601 83.94 59.4652 84.5961 59.4977C85.2461 59.5257 85.8966 59.6865 86.4415 60.0346L86.4233 60.0922C85.7873 60.0659 85.1953 60.0512 84.6071 60.1016C84.0252 60.1562 83.4334 60.1815 82.8628 60.3564C82.2948 60.527 81.7501 60.7952 81.2578 61.145C80.7586 61.487 80.3163 61.9171 79.9396 62.4062L79.8887 62.3731Z" fill="#AA391C"/>
<path d="M96.5439 62.4082C96.167 61.9191 95.7249 61.489 95.2256 61.147C94.7334 60.7973 94.1887 60.529 93.6206 60.3584C93.05 60.1835 92.4583 60.1582 91.8764 60.1035C91.2881 60.0532 90.696 60.0681 90.0602 60.0941L90.042 60.0365C90.5869 59.6885 91.2374 59.5277 91.8873 59.4997C92.5435 59.4671 93.1872 59.6618 93.7832 59.9034C94.3818 60.1492 94.9326 60.4927 95.4129 60.9098C95.8861 61.3344 96.2945 61.8267 96.5948 62.3751L96.5439 62.4082Z" fill="#AA391C"/>
<path d="M83.4033 76.3371C83.7614 76.5647 84.1322 76.7633 84.5137 76.9355C84.8933 77.1106 85.2829 77.2603 85.6796 77.3803C86.0774 77.4951 86.4772 77.6029 86.886 77.6546C87.0887 77.6914 87.294 77.7033 87.4981 77.7259C87.703 77.7329 87.9084 77.7464 88.1129 77.7384C88.9315 77.7257 89.7475 77.5629 90.531 77.292C91.3147 77.0195 92.0733 76.655 92.7881 76.1992C92.1746 76.7892 91.4346 77.2473 90.6438 77.5852C90.2503 77.7623 89.8331 77.8818 89.4124 77.985C89.2 78.0297 88.9869 78.0714 88.7701 78.0925C88.5548 78.1255 88.3368 78.1311 88.1192 78.1407C87.2487 78.1539 86.3802 77.9872 85.5767 77.6763C85.1729 77.5253 84.7878 77.33 84.4211 77.1095C84.0575 76.8844 83.7073 76.635 83.4033 76.3371Z" fill="#392F3F"/>
<path d="M90.3714 73.033C91.1431 72.2035 91.5899 71.125 91.5899 71.125C91.5899 71.125 89.9024 72.0115 88.462 72.0115C87.0215 72.0115 85.1816 71.4601 85.1816 71.4601C85.1816 71.4601 85.6684 72.246 86.4186 72.9388C87.7212 72.6748 89.0825 72.7092 90.3714 73.033Z" fill="#392F3F"/>
<path d="M86.4189 72.9396C87.0101 73.4855 87.7648 73.9735 88.5748 73.9735C89.2813 73.9735 89.8899 73.5521 90.3719 73.0339C89.083 72.7101 87.7217 72.6756 86.4189 72.9396Z" fill="#AA391C"/>
<path d="M87.9895 62.1113L88.3221 63.959C88.4348 64.5723 88.5529 65.1836 88.6835 65.7916C88.8083 66.401 88.9493 67.0064 89.0945 67.6111C89.242 68.2152 89.3979 68.8175 89.5607 69.4192L89.5908 69.5305L89.5027 69.5855C89.1858 69.7832 88.84 69.9264 88.4882 70.0274C88.1355 70.1275 87.7754 70.1855 87.415 70.2092C87.7621 70.1091 88.1033 69.999 88.4281 69.858C88.5897 69.7861 88.7489 69.7115 88.9009 69.6247C89.0529 69.5381 89.1987 69.4433 89.3387 69.3419L89.2808 69.5082C89.0657 68.9172 88.8778 68.3159 88.7164 67.7077C88.5527 67.0999 88.4197 66.4842 88.3053 65.8655C88.1968 65.2455 88.111 64.6219 88.0554 63.9955C88.0021 63.3687 87.9727 62.7403 87.9895 62.1113Z" fill="#392F3F"/>
<path d="M95.0215 65.677C94.719 65.0518 94.3643 64.4526 93.8664 64.018C93.3796 63.59 92.7282 63.3332 92.1109 63.4107C91.493 63.4738 90.9665 63.932 90.6301 64.4912C90.2879 65.0575 90.1224 65.737 89.9316 66.4059C89.9587 65.7136 90.0319 65.0007 90.3543 64.3408C90.5128 64.0127 90.739 63.712 91.0262 63.4681C91.3141 63.2272 91.6796 63.0578 92.0624 63.0114C92.8328 62.9256 93.581 63.2627 94.083 63.7919C94.5917 64.321 94.8757 64.9991 95.0215 65.677Z" fill="#392F3F"/>
<path d="M80.8877 65.6788C81.0334 65.0009 81.3174 64.323 81.8261 63.7939C82.3282 63.2645 83.0764 62.9274 83.8468 63.0134C84.2295 63.0598 84.595 63.2292 84.883 63.4701C85.1701 63.714 85.3964 64.0147 85.5546 64.3428C85.877 65.0025 85.9503 65.7157 85.9773 66.4079C85.7865 65.739 85.621 65.0595 85.2788 64.4932C84.9427 63.934 84.416 63.4758 83.798 63.4128C83.1806 63.3352 82.5293 63.592 82.0426 64.02C81.5447 64.4542 81.1901 65.0536 80.8877 65.6788Z" fill="#392F3F"/>
<path d="M76.4857 65.9782C77.8734 65.0073 78.824 63.4869 79.2861 61.8576C79.748 60.2281 79.7474 58.4938 79.4894 56.8199C81.3771 59.0237 85.9053 62.1075 85.9053 62.1075C85.9053 62.1075 84.1297 59.4158 83.3427 57.9675C84.5808 59.6767 86.1029 60.6682 89.8077 61.3888C93.5123 62.1095 96.2275 60.8506 97.3035 59.8191C97.2175 62.1518 97.8327 64.8241 99.3723 66.5786C99.7823 63.8498 99.8124 60.9593 98.9032 58.354C97.9939 55.7486 96.1192 53.4048 93.5756 52.3349C92.0971 51.713 90.4713 51.5399 88.8693 51.4623C87.5979 51.4006 86.3151 51.3955 85.0624 51.6215C81.0934 52.3373 77.6921 55.5586 76.7617 59.4828C76.233 61.7115 76.2649 63.6984 76.4857 65.9782Z" fill="#AA391C"/>
<path d="M102.315 65.8736C102.14 66.806 101.626 67.6685 100.971 68.3143C100.527 68.753 100.007 69.1058 99.4517 69.2552C98.8962 69.4049 98.3039 69.3369 97.8628 68.9982C97.4593 68.6882 97.2072 68.1758 97.0844 67.6273C96.8009 66.3614 97.1843 64.8913 97.9619 63.7901C98.5021 63.0252 99.2664 62.401 100.089 62.2974C101.747 62.0889 102.626 64.2246 102.315 65.8736Z" fill="#F89C75"/>
<path d="M97.6494 67.8171C98.0468 67.7944 98.4413 67.6526 98.7763 67.4123C98.8778 67.3394 98.9839 67.2362 98.979 67.1077C98.9763 67.036 98.9385 66.9729 98.9003 66.9149C98.6742 66.5722 98.3926 66.2727 98.0707 66.0329C98.3056 65.5039 98.5442 64.9683 98.8948 64.5161C99.2452 64.0636 99.7261 63.6961 100.264 63.6215C100.803 63.5467 101.389 63.8217 101.595 64.35C101.595 64.35 102.317 65.8754 100.616 67.5269C98.8215 69.2684 97.6494 67.8171 97.6494 67.8171Z" fill="#F89C75"/>
<path d="M101.592 64.3465C101.386 63.9714 100.995 63.7685 100.615 63.7418C100.233 63.7144 99.8657 63.876 99.5629 64.1128C99.2577 64.3528 99.0135 64.666 98.8078 65.0107C98.6045 65.3574 98.4278 65.7298 98.2533 66.1113L98.1894 65.8675C98.3988 66.0334 98.589 66.2212 98.7557 66.4269C98.8372 66.5313 98.913 66.6396 98.9831 66.7511C99.0166 66.8077 99.0527 66.858 99.0881 66.9401C99.1248 67.0181 99.1365 67.1397 99.0975 67.2302C99.02 67.4112 98.8797 67.4827 98.7714 67.5491C98.6566 67.6159 98.5344 67.6678 98.411 67.7113C98.1634 67.7976 97.9009 67.8323 97.6475 67.8137C97.8972 67.7657 98.1307 67.6766 98.3442 67.5598C98.4507 67.5009 98.5501 67.4314 98.6454 67.3593C98.7422 67.2878 98.8231 67.2037 98.8321 67.142C98.8352 67.1127 98.8317 67.1003 98.8137 67.0651C98.7961 67.0325 98.7559 66.9814 98.7199 66.9334C98.646 66.8382 98.5677 66.7472 98.485 66.6606C98.3223 66.4851 98.1428 66.3268 97.9483 66.1913L97.8183 66.1006L97.8845 65.9472C98.0506 65.5619 98.2161 65.1647 98.4478 64.7921C98.5634 64.6059 98.6903 64.4251 98.8388 64.2562C98.9882 64.0893 99.1575 63.9389 99.3445 63.8106C99.7137 63.5575 100.193 63.3975 100.651 63.5003C101.098 63.5902 101.496 63.9252 101.592 64.3465Z" fill="#000035"/>
<path d="M74.1281 65.8736C74.3036 66.806 74.818 67.6685 75.4722 68.3143C75.9167 68.753 76.4363 69.1058 76.9916 69.2552C77.5471 69.4049 78.1395 69.3369 78.5806 68.9982C78.9841 68.6882 79.2362 68.1758 79.359 67.6273C79.6424 66.3614 79.2589 64.8913 78.4813 63.7901C77.941 63.0252 77.1767 62.401 76.3544 62.2974C74.6966 62.0889 73.8177 64.2246 74.1281 65.8736Z" fill="#F89C75"/>
<path d="M78.7949 67.8152C78.3974 67.7925 78.003 67.6507 77.668 67.4103C77.5665 67.3375 77.4604 67.2342 77.4653 67.1057C77.468 67.034 77.5058 66.971 77.544 66.913C77.7701 66.5702 78.0517 66.2707 78.3734 66.031C78.1385 65.5019 77.8999 64.9664 77.5493 64.5141C77.1989 64.0616 76.718 63.6942 76.1797 63.6195C75.6417 63.5447 75.055 63.8197 74.8496 64.348C74.8496 64.348 74.1274 65.8735 75.8283 67.5249C77.6226 69.2664 78.7949 67.8152 78.7949 67.8152Z" fill="#F89C75"/>
<path d="M74.8496 64.3461C74.9458 63.9248 75.3436 63.5898 75.7908 63.5003C76.2489 63.3975 76.7284 63.5575 77.0977 63.8106C77.2847 63.9387 77.454 64.0893 77.6034 64.2562C77.7519 64.4251 77.879 64.606 77.9944 64.7921C78.2261 65.1647 78.3916 65.5619 78.5577 65.9472L78.6237 66.1006L78.4937 66.1913C78.2994 66.3268 78.1197 66.4851 77.957 66.6606C77.8743 66.7472 77.7958 66.8382 77.7219 66.9334C77.6857 66.9814 77.6455 67.0325 77.6281 67.0651C77.6101 67.1005 77.6066 67.1127 77.6097 67.142C77.6187 67.2037 77.6996 67.2878 77.7964 67.3593C77.8917 67.4314 77.9911 67.5009 78.0976 67.5598C78.3109 67.6764 78.5446 67.7655 78.7943 67.8137C78.5411 67.8323 78.2784 67.7976 78.0308 67.7113C77.9074 67.6678 77.785 67.6159 77.6704 67.5491C77.5621 67.4827 77.4218 67.4112 77.3443 67.2302C77.3053 67.1397 77.3169 67.0181 77.3537 66.9401C77.3891 66.858 77.4252 66.8079 77.4587 66.7511C77.5286 66.6396 77.6044 66.5313 77.6861 66.4269C77.8528 66.2212 78.043 66.0334 78.2524 65.8675L78.1885 66.1113C78.0138 65.7298 77.8373 65.3574 77.634 65.0107C77.4285 64.666 77.184 64.353 76.8789 64.1128C76.5761 63.876 76.2088 63.7144 75.8266 63.7418C75.4468 63.7681 75.0557 63.971 74.8496 64.3461Z" fill="#000035"/>
<g opacity="0.3">
<path d="M81.5264 52.5488C81.9128 53.2416 82.3602 53.899 82.8726 54.5007C83.3799 55.1064 83.9454 55.6621 84.5593 56.1567C85.7845 57.147 87.1938 57.914 88.7044 58.3555C90.2103 58.8129 91.8094 58.9438 93.3768 58.7857C94.1613 58.7081 94.9387 58.5532 95.6948 58.324C96.4532 58.1013 97.1874 57.7963 97.8904 57.4285C97.2095 57.8369 96.4789 58.1624 95.725 58.419C94.9687 58.6693 94.1864 58.8435 93.3941 58.941C91.8088 59.1336 90.1823 59.0002 88.6462 58.5501C87.1149 58.0848 85.6805 57.3062 84.46 56.2765C83.8504 55.7608 83.2912 55.1869 82.7956 54.5632C82.3056 53.936 81.8725 53.2634 81.5264 52.5488Z" fill="white"/>
<path d="M84.0859 52.1934C84.5361 52.6039 84.9973 53.0008 85.4843 53.3637C85.9671 53.7316 86.4701 54.072 86.9945 54.3746C88.0403 54.9811 89.1683 55.4555 90.3524 55.6886C91.5304 55.9367 92.7618 55.9279 93.939 55.6688C95.1149 55.4102 96.2416 54.8753 97.1502 54.0606C96.7264 54.4994 96.2263 54.8637 95.6902 55.1609C95.1503 55.4527 94.5709 55.6711 93.9747 55.821C92.7797 56.1175 91.5192 56.1258 90.3114 55.8874C89.1064 55.6327 87.9564 55.1511 86.9146 54.508C85.8711 53.865 84.9247 53.0768 84.0859 52.1934Z" fill="white"/>
<path d="M86.7021 51.2598C86.8665 51.3256 87.0295 51.3928 87.1911 51.4621L87.6864 51.6443L88.1861 51.8108L88.6922 51.9541C89.3708 52.1295 90.0604 52.2579 90.757 52.3242C91.4529 52.3951 92.1545 52.4037 92.8542 52.3639L93.3786 52.3222L93.9011 52.2566L94.4226 52.1747C94.5947 52.1383 94.7677 52.1044 94.9416 52.0719C94.7736 52.1255 94.6045 52.1776 94.4345 52.2274L93.9186 52.3549L93.3952 52.4499L92.8673 52.5202C92.1608 52.5976 91.4455 52.5945 90.7372 52.5269C90.0295 52.4546 89.3273 52.3183 88.6495 52.1044L88.1456 51.9326L87.6508 51.7373L87.1697 51.5117C87.0122 51.4292 86.8567 51.3452 86.7021 51.2598Z" fill="white"/>
<path d="M100.958 70.5469C101.205 71.1224 101.428 71.708 101.639 72.2984C101.845 72.8907 102.031 73.4903 102.194 74.0965C102.519 75.3094 102.732 76.5555 102.81 77.8127C102.871 79.07 102.792 80.3393 102.515 81.5692C102.375 82.1832 102.191 82.7871 101.957 83.3704C101.716 83.951 101.432 84.5143 101.088 85.0379C101.393 84.4908 101.656 83.9228 101.864 83.3348C102.077 82.7493 102.243 82.1472 102.362 81.5368C102.603 80.3163 102.683 79.0653 102.607 77.824C102.546 76.5806 102.333 75.3476 102.043 74.1349C101.899 73.5279 101.73 72.9262 101.545 72.3293C101.366 71.7302 101.163 71.1386 100.958 70.5469Z" fill="white"/>
<path d="M98.5204 72.8984C98.5524 73.1025 98.5825 73.3072 98.6102 73.5127L98.6609 74.1326L98.6685 74.7555L98.6413 75.3784C98.5806 76.2085 98.4113 77.0296 98.1679 77.8259C97.9087 78.6174 97.5732 79.3856 97.1452 80.0994L96.8085 80.6241L96.4434 81.1289L96.0446 81.6065C95.9036 81.7585 95.7608 81.9085 95.6172 82.0568C95.7447 81.8936 95.873 81.732 96.0031 81.5722L96.3631 81.0702L96.7008 80.5544L97.0097 80.0216C97.4036 79.3022 97.7344 78.5481 97.9743 77.7646C98.23 76.986 98.3933 76.179 98.4864 75.3639L98.5408 74.7504L98.562 74.1342L98.5569 73.5164C98.5424 73.3113 98.5306 73.1053 98.5204 72.8984Z" fill="white"/>
<path d="M95.1788 76.5879C95.1012 77.2121 94.903 77.8172 94.6385 78.3878C94.3688 78.9558 94.0298 79.4951 93.5986 79.953C93.8985 79.4014 94.1945 78.8616 94.4546 78.3014C94.7198 77.7436 94.9465 77.171 95.1788 76.5879Z" fill="white"/>
<path d="M79.8789 75.6562C79.8611 75.7834 79.8417 75.9093 79.82 76.0345L79.7802 76.4133L79.7549 76.7919L79.7512 77.1708C79.7612 77.6749 79.8129 78.1774 79.9195 78.6686C80.1261 79.6537 80.5314 80.5913 81.103 81.4391C80.4019 80.6895 79.9361 79.7212 79.7207 78.7107C79.6159 78.2038 79.5681 77.6841 79.5955 77.168L79.6272 76.7823L79.6819 76.4L79.7673 76.0239C79.8025 75.9005 79.84 75.7779 79.8789 75.6562Z" fill="white"/>
<path d="M77.7262 71.6738L77.4148 72.3623L77.14 73.0647L76.8975 73.7775L76.6943 74.5019C76.4485 75.4736 76.2908 76.4677 76.2491 77.4682C76.1909 78.468 76.2476 79.4728 76.3952 80.4641L76.5245 81.2051L76.6943 81.9387L76.8973 82.665L77.138 83.3813L76.8463 82.6824L76.5984 81.9655L76.399 81.2327L76.2407 80.4894C76.0591 79.4914 76.0029 78.4717 76.046 77.4576C76.1053 76.4446 76.2626 75.4354 76.5439 74.4607L76.7758 73.737L77.0475 73.0279L77.3658 72.3394L77.7262 71.6738Z" fill="white"/>
<path d="M73.8189 69.3398L73.3898 70.1807L73.011 71.0438L72.6784 71.9244L72.3992 72.8225C72.0614 74.0293 71.8488 75.2715 71.7897 76.5224C71.7143 77.7725 71.791 79.0302 71.9977 80.2663L72.1785 81.1893L72.4143 82.1005L72.6979 82.9994L73.0341 83.8818L72.6476 83.0186L72.3191 82.1301L72.0537 81.2199L71.8439 80.2944C71.6032 79.0511 71.5266 77.7772 71.5871 76.5116C71.6639 75.247 71.8764 73.9887 72.2502 72.7786L72.5585 71.8811L72.9203 71.0048L73.3424 70.1566L73.8189 69.3398Z" fill="white"/>
</g>
<path d="M99.0841 76.1899C99.9988 76.1899 100.74 74.5148 100.74 72.4484C100.74 70.3821 99.9988 68.707 99.0841 68.707C98.1693 68.707 97.4277 70.3821 97.4277 72.4484C97.4277 74.5148 98.1693 76.1899 99.0841 76.1899Z" stroke="#FFD7B4" stroke-width="2.92357" stroke-miterlimit="10"/>
<path d="M77.1827 76.4086C78.0974 76.4086 78.839 74.7335 78.839 72.6672C78.839 70.6009 78.0974 68.9258 77.1827 68.9258C76.2679 68.9258 75.5264 70.6009 75.5264 72.6672C75.5264 74.7335 76.2679 76.4086 77.1827 76.4086Z" stroke="#FFD7B4" stroke-width="2.92357" stroke-miterlimit="10"/>
<path d="M52.4568 92.4156C54.2023 94.7948 56.705 96.501 59.545 97.2592L60.119 97.3981C63.1948 98.0705 66.4098 97.5973 69.1613 96.0677L69.1665 96.0759C66.6283 97.938 64.8571 100.663 64.1846 103.739C63.5121 106.815 63.9854 110.03 65.515 112.781L65.506 112.787C63.7607 110.408 61.2578 108.702 58.4178 107.943L57.8433 107.804C54.8404 107.147 51.7061 107.586 48.999 109.03C51.2838 107.29 52.9035 104.811 53.6398 102.039L53.7782 101.464C54.4507 98.3878 53.9777 95.1728 52.4478 92.4214L52.4568 92.4156Z" fill="#FFD230" stroke="black" stroke-width="0.04096"/>
<path d="M25.764 16.7127C30.2735 22.8598 36.8057 27.2091 44.2002 29.0036L44.9202 29.1695C52.6097 30.8505 60.6473 29.6669 67.5258 25.843L67.5395 25.8644C61.3924 30.374 57.0435 36.9069 55.2491 44.3014L55.084 45.021C53.4029 52.7105 54.5857 60.7483 58.4097 67.627L58.3875 67.6412C53.8785 61.4937 47.3466 57.1444 39.9521 55.3498L39.2329 55.1834C31.7571 53.549 23.9512 54.6215 17.2026 58.1967C23.0693 53.6994 27.1651 47.241 28.9042 40.0536L29.0701 39.3336C30.7514 31.6437 29.5667 23.6054 25.7418 16.7269L25.764 16.7127Z" fill="#FFD230" stroke="black" stroke-width="0.1024"/>
</svg>
