<svg width="26" height="32" viewBox="0 0 26 32" fill="none" xmlns="http://www.w3.org/2000/svg">
<path d="M24.6396 11.8295V27.6307C24.6396 28.5561 24.2755 29.4436 23.6274 30.0979C22.9792 30.7523 22.1002 31.1199 21.1836 31.1199H5.05561C4.13902 31.1199 3.25997 30.7523 2.61185 30.0979C1.96372 29.4436 1.59961 28.5561 1.59961 27.6307V4.36911C1.59961 3.44371 1.96372 2.55621 2.61185 1.90185C3.25997 1.2475 4.13902 0.879883 5.05561 0.879883H13.4796C14.0905 0.879976 13.3623 1.12497 13.7942 1.56101L23.965 11.8295C24.3969 12.2657 24.6395 11.2128 24.6396 11.8295Z" fill="#EB5757" stroke="#EB5757" stroke-width="1.44" stroke-linejoin="round"/>
<path d="M13.8379 0.879883C13.8379 4.20962 13.8379 9.4062 13.8379 9.4062C13.8379 10.0092 14.0774 10.5875 14.5038 11.0139C14.9302 11.4403 15.5086 11.6799 16.1116 11.6799H24.6379" fill="#F9A2A2"/>
<path d="M13.8379 0.879883C13.8379 4.20962 13.8379 9.4062 13.8379 9.4062C13.8379 10.0092 14.0774 10.5875 14.5038 11.0139C14.9302 11.4403 15.5086 11.6799 16.1116 11.6799H24.6379L13.8379 0.879883Z" stroke="#F9A2A2" stroke-width="1.44" stroke-linecap="round" stroke-linejoin="round"/>
<path d="M11.1402 27.04V22.8509H12.9483C13.2592 22.8509 13.5313 22.9123 13.7645 23.035C13.9977 23.1578 14.179 23.3303 14.3086 23.5525C14.4381 23.7748 14.5029 24.0346 14.5029 24.3319C14.5029 24.6319 14.4361 24.8916 14.3024 25.1112C14.1702 25.3307 13.984 25.4998 13.744 25.6184C13.5054 25.7371 13.2265 25.7964 12.9074 25.7964H11.8274V24.9128H12.6783C12.812 24.9128 12.9258 24.8896 13.0199 24.8432C13.1154 24.7955 13.1883 24.728 13.2388 24.6407C13.2906 24.5534 13.3165 24.4505 13.3165 24.3319C13.3165 24.2119 13.2906 24.1096 13.2388 24.025C13.1883 23.9391 13.1154 23.8737 13.0199 23.8287C12.9258 23.7823 12.812 23.7591 12.6783 23.7591H12.2774V27.04H11.1402ZM16.532 27.04H14.9202V22.8509H16.5156C16.9465 22.8509 17.3188 22.9348 17.6324 23.1025C17.9474 23.2689 18.1902 23.5089 18.3606 23.8225C18.5324 24.1348 18.6183 24.5091 18.6183 24.9455C18.6183 25.3819 18.5331 25.7569 18.3627 26.0705C18.1922 26.3828 17.9508 26.6228 17.6386 26.7905C17.3263 26.9569 16.9574 27.04 16.532 27.04ZM16.0574 26.0746H16.4911C16.6983 26.0746 16.8749 26.0412 17.0208 25.9744C17.1681 25.9075 17.2799 25.7923 17.3563 25.6287C17.434 25.465 17.4729 25.2373 17.4729 24.9455C17.4729 24.6537 17.4333 24.4259 17.3542 24.2623C17.2765 24.0987 17.162 23.9834 17.0106 23.9166C16.8606 23.8498 16.6765 23.8164 16.4583 23.8164H16.0574V26.0746ZM19.1445 27.04V22.8509H22.09V23.7673H20.2818V24.4873H21.91V25.4037H20.2818V27.04H19.1445Z" fill="#F2F2F2"/>
</svg>
