<svg width="32" height="33" viewBox="0 0 32 33" fill="none" xmlns="http://www.w3.org/2000/svg">
<path d="M8 12.1478V2.81445H24V12.1478" stroke="#FE9A00" stroke-width="2.66667" stroke-linecap="round" stroke-linejoin="round"/>
<path d="M8.00033 24.1465H5.33366C4.62641 24.1465 3.94814 23.8655 3.44804 23.3654C2.94794 22.8653 2.66699 22.1871 2.66699 21.4798V14.8132C2.66699 14.1059 2.94794 13.4276 3.44804 12.9275C3.94814 12.4274 4.62641 12.1465 5.33366 12.1465H26.667C27.3742 12.1465 28.0525 12.4274 28.5526 12.9275C29.0527 13.4276 29.3337 14.1059 29.3337 14.8132V21.4798C29.3337 22.1871 29.0527 22.8653 28.5526 23.3654C28.0525 23.8655 27.3742 24.1465 26.667 24.1465H24.0003" stroke="#FE9A00" stroke-width="2.66667" stroke-linecap="round" stroke-linejoin="round"/>
<path d="M24 18.8145H8V29.4811H24V18.8145Z" stroke="#FE9A00" stroke-width="2.66667" stroke-linecap="round" stroke-linejoin="round"/>
</svg>
