<svg width="25" height="25" viewBox="0 0 25 25" fill="none" xmlns="http://www.w3.org/2000/svg">
<path d="M12.75 0.765625C6.12979 0.765625 0.765625 6.12979 0.765625 12.75C0.765625 19.3702 6.12979 24.7344 12.75 24.7344C19.3702 24.7344 24.7344 19.3702 24.7344 12.75C24.7344 6.12979 19.3702 0.765625 12.75 0.765625ZM18.8862 9.43701L11.1828 17.175H11.1771C11.0791 17.2729 10.8141 17.4919 10.5087 17.4919C10.2897 17.4919 10.042 17.3709 9.83457 17.1635L6.60801 13.9369C6.51582 13.8447 6.51582 13.7007 6.60801 13.6085L7.63359 12.5829C7.67969 12.5368 7.7373 12.5138 7.79492 12.5138C7.85254 12.5138 7.91016 12.5368 7.95625 12.5829L10.5145 15.1411L17.5438 8.05996C17.5898 8.01387 17.6475 7.99082 17.7051 7.99082C17.7685 7.99082 17.8261 8.01387 17.8664 8.05996L18.8747 9.10283C18.9784 9.20078 18.9784 9.34482 18.8862 9.43701Z" fill="#336EE7"/>
</svg>
