<svg width="32" height="33" viewBox="0 0 32 33" fill="none" xmlns="http://www.w3.org/2000/svg">
<path d="M25.8062 6.21523C23.1875 3.59023 19.7 2.14648 15.9937 2.14648C8.34375 2.14648 2.11875 8.37148 2.11875 16.0215C2.11875 18.4652 2.75625 20.8527 3.96875 22.959L2 30.1465L9.35625 28.2152C11.3813 29.3215 13.6625 29.9027 15.9875 29.9027H15.9937C23.6375 29.9027 30 23.6777 30 16.0277C30 12.3215 28.425 8.84023 25.8062 6.21523ZM15.9937 27.5652C13.9187 27.5652 11.8875 27.009 10.1187 25.959L9.7 25.709L5.3375 26.8527L6.5 22.5965L6.225 22.159C5.06875 20.3215 4.4625 18.2027 4.4625 16.0215C4.4625 9.66523 9.6375 4.49023 16 4.49023C19.0812 4.49023 21.975 5.69023 24.15 7.87148C26.325 10.0527 27.6625 12.9465 27.6562 16.0277C27.6562 22.3902 22.35 27.5652 15.9937 27.5652ZM22.3188 18.9277C21.975 18.7527 20.2688 17.9152 19.95 17.8027C19.6313 17.684 19.4 17.6277 19.1688 17.9777C18.9375 18.3277 18.275 19.1027 18.0688 19.3402C17.8688 19.5715 17.6625 19.6027 17.3188 19.4277C15.2812 18.409 13.9438 17.609 12.6 15.3027C12.2438 14.6902 12.9562 14.734 13.6187 13.409C13.7312 13.1777 13.675 12.9777 13.5875 12.8027C13.5 12.6277 12.8063 10.9215 12.5188 10.2277C12.2375 9.55273 11.95 9.64648 11.7375 9.63398C11.5375 9.62148 11.3062 9.62148 11.075 9.62148C10.8438 9.62148 10.4688 9.70898 10.15 10.0527C9.83125 10.4027 8.9375 11.2402 8.9375 12.9465C8.9375 14.6527 10.1813 16.3027 10.35 16.534C10.525 16.7652 12.7937 20.2652 16.275 21.7715C18.475 22.7215 19.3375 22.8027 20.4375 22.6402C21.1063 22.5402 22.4875 21.8027 22.775 20.9902C23.0625 20.1777 23.0625 19.484 22.975 19.3402C22.8938 19.184 22.6625 19.0965 22.3188 18.9277Z" fill="#00A63E"/>
</svg>
