<svg width="17" height="15" viewBox="0 0 17 15" fill="none" xmlns="http://www.w3.org/2000/svg">
<path d="M16.157 0C16.6226 0 17 0.370792 17 0.827833V14.1722C17 14.6293 16.613 15 16.157 15H0.84303C0.377443 15 0 14.6292 0 14.1722V0.827833C0 0.370633 0.387014 0 0.84303 0H16.157ZM15.3 1.66667H1.7V13.3333H15.3V1.66667ZM13.6 10V11.6667H3.4V10H13.6ZM8.5 3.33333V8.33333H3.4V3.33333H8.5ZM13.6 6.66667V8.33333H10.2V6.66667H13.6ZM6.8 5H5.1V6.66667H6.8V5ZM13.6 3.33333V5H10.2V3.33333H13.6Z" fill="#1E1B39"/>
</svg>
