<svg width="17" height="15" viewBox="0 0 17 15" fill="none" xmlns="http://www.w3.org/2000/svg">
<path d="M1.32812 0.59375C0.886523 0.59375 0.53125 0.949023 0.53125 1.39062V2.98438C0.53125 3.42598 0.886523 3.78125 1.32812 3.78125H2.92188C3.36348 3.78125 3.71875 3.42598 3.71875 2.98438V1.39062C3.71875 0.949023 3.36348 0.59375 2.92188 0.59375H1.32812ZM6.375 1.125C5.7873 1.125 5.3125 1.5998 5.3125 2.1875C5.3125 2.7752 5.7873 3.25 6.375 3.25H15.9375C16.5252 3.25 17 2.7752 17 2.1875C17 1.5998 16.5252 1.125 15.9375 1.125H6.375ZM6.375 6.4375C5.7873 6.4375 5.3125 6.9123 5.3125 7.5C5.3125 8.0877 5.7873 8.5625 6.375 8.5625H15.9375C16.5252 8.5625 17 8.0877 17 7.5C17 6.9123 16.5252 6.4375 15.9375 6.4375H6.375ZM6.375 11.75C5.7873 11.75 5.3125 12.2248 5.3125 12.8125C5.3125 13.4002 5.7873 13.875 6.375 13.875H15.9375C16.5252 13.875 17 13.4002 17 12.8125C17 12.2248 16.5252 11.75 15.9375 11.75H6.375ZM0.53125 6.70312V8.29688C0.53125 8.73848 0.886523 9.09375 1.32812 9.09375H2.92188C3.36348 9.09375 3.71875 8.73848 3.71875 8.29688V6.70312C3.71875 6.26152 3.36348 5.90625 2.92188 5.90625H1.32812C0.886523 5.90625 0.53125 6.26152 0.53125 6.70312ZM1.32812 11.2188C0.886523 11.2188 0.53125 11.574 0.53125 12.0156V13.6094C0.53125 14.051 0.886523 14.4062 1.32812 14.4062H2.92188C3.36348 14.4062 3.71875 14.051 3.71875 13.6094V12.0156C3.71875 11.574 3.36348 11.2188 2.92188 11.2188H1.32812Z" fill="#1E1B39"/>
</svg>
