<svg width="17" height="17" viewBox="0 0 17 17" fill="none" xmlns="http://www.w3.org/2000/svg">
<path d="M16.585 5.60931L12.335 1.36025C11.4492 0.474422 9.91667 1.09477 9.91667 2.36195V4.05009C8.6638 4.10558 7.43661 4.2434 6.35257 4.58104C5.31457 4.90422 4.49113 5.39504 3.90557 6.03962C3.19399 6.82351 2.83333 7.80927 2.83333 8.97035C2.83333 10.7913 3.81255 12.2893 5.33818 13.2428C6.44631 13.9366 7.85418 12.8694 7.43425 11.5977C6.97635 10.207 6.92791 9.50446 9.91667 9.27316V10.861C9.91667 12.1299 11.4504 12.7473 12.335 11.8627L16.585 7.61271C17.1384 7.05962 17.1384 6.1624 16.585 5.60931ZM11.3333 10.861V7.79629C7.53516 7.85301 4.91383 8.48071 6.08901 12.0416C5.21776 11.497 4.25 10.5092 4.25 8.97035C4.25 5.74348 8.06142 5.45976 11.3333 5.43311V2.36101L15.5833 6.61101L11.3333 10.861ZM12.0635 13.3547C12.2816 13.2924 12.49 13.2 12.6825 13.0802C12.9179 12.934 13.2222 13.1045 13.2222 13.3816V14.6388C13.2222 15.4212 12.588 16.0555 11.8056 16.0555H1.41667C0.634254 16.0555 0 15.4212 0 14.6388V4.2499C0 3.46748 0.634254 2.83323 1.41667 2.83323H5.3125C5.50809 2.83323 5.66667 2.99181 5.66667 3.1874V3.3198C5.66667 3.46492 5.57851 3.59631 5.44328 3.64894C5.03888 3.80627 4.66423 3.98944 4.32027 4.19745C4.26444 4.23153 4.20034 4.24967 4.13493 4.2499H1.59375C1.54678 4.2499 1.50174 4.26855 1.46853 4.30176C1.43532 4.33497 1.41667 4.38002 1.41667 4.42698V14.4617C1.41667 14.5087 1.43532 14.5537 1.46853 14.5869C1.50174 14.6201 1.54678 14.6388 1.59375 14.6388H11.6285C11.6754 14.6388 11.7205 14.6201 11.7537 14.5869C11.7869 14.5537 11.8056 14.5087 11.8056 14.4617V13.6953C11.8056 13.5369 11.9112 13.3985 12.0635 13.3547Z" fill="#1E1B39"/>
</svg>
