<svg width="19" height="17" viewBox="0 0 19 17" fill="none" xmlns="http://www.w3.org/2000/svg">
<path d="M6.41285 12.3909L9.50195 15.5M9.50195 15.5L12.5911 12.3909M9.50195 15.5V8.50453M16.3598 13.2381C17.0312 12.7629 17.5347 12.0848 17.7972 11.3021C18.0597 10.5193 18.0676 9.67279 17.8197 8.88526C17.5718 8.09773 17.081 7.4102 16.4185 6.92243C15.756 6.43467 14.9564 6.17206 14.1356 6.1727H13.1625C12.9303 5.26164 12.4957 4.41548 11.8915 3.69792C11.2873 2.98037 10.5292 2.41012 9.67433 2.03011C8.81947 1.65009 7.89009 1.47021 6.95617 1.50402C6.02224 1.53782 5.1081 1.78442 4.28257 2.22526C3.45704 2.66609 2.74163 3.28967 2.19019 4.04906C1.63876 4.80844 1.26568 5.68383 1.09903 6.60934C0.932377 7.53484 0.976505 8.48634 1.22809 9.39219C1.47967 10.298 1.93216 11.1347 2.55147 11.839" stroke="#1E1B39" stroke-width="2" stroke-linecap="round" stroke-linejoin="round"/>
</svg>
