<svg width="17" height="19" viewBox="0 0 17 19" fill="none" xmlns="http://www.w3.org/2000/svg">
<path d="M5.93945 6.64314C5.96992 6.55171 6.02863 6.47215 6.10722 6.41576C6.18581 6.35936 6.28029 6.32901 6.37724 6.32901C6.47419 6.32901 6.56867 6.35936 6.64726 6.41576C6.72585 6.47215 6.78455 6.55171 6.81503 6.64314L7.63748 9.09645C8.00513 10.1901 8.86796 11.0473 9.96881 11.4125L12.4383 12.2296C12.5303 12.2599 12.6104 12.3182 12.6672 12.3963C12.7239 12.4743 12.7545 12.5682 12.7545 12.6645C12.7545 12.7608 12.7239 12.8547 12.6672 12.9328C12.6104 13.0108 12.5303 13.0692 12.4383 13.0994L9.96881 13.9165C9.42555 14.0956 8.9319 14.3983 8.52716 14.8004C8.12242 15.2024 7.81777 15.6929 7.63748 16.2326L6.81503 18.6859C6.78455 18.7773 6.72585 18.8569 6.64726 18.9133C6.56867 18.9696 6.47419 19 6.37724 19C6.28029 19 6.18581 18.9696 6.10722 18.9133C6.02863 18.8569 5.96992 18.7773 5.93945 18.6859L5.117 16.2326C4.9367 15.6929 4.63205 15.2024 4.22731 14.8004C3.82257 14.3983 3.32892 14.0956 2.78567 13.9165L0.3162 13.0994C0.224168 13.0692 0.144081 13.0108 0.0873169 12.9328C0.0305531 12.8547 0 12.7608 0 12.6645C0 12.5682 0.0305531 12.4743 0.0873169 12.3963C0.144081 12.3182 0.224168 12.2599 0.3162 12.2296L2.78567 11.4125C3.32892 11.2334 3.82257 10.9307 4.22731 10.5287C4.63205 10.1266 4.9367 9.63614 5.117 9.09645L5.93945 6.64314ZM12.4617 0.205855C12.4826 0.145739 12.5219 0.093611 12.5741 0.0567179C12.6263 0.0198247 12.6888 0 12.7528 0C12.8168 0 12.8793 0.0198247 12.9315 0.0567179C12.9837 0.093611 13.023 0.145739 13.044 0.205855L13.5923 1.83998C13.8367 2.57049 14.4126 3.14264 15.1479 3.38544L16.7928 3.93015C16.8533 3.95099 16.9058 3.99005 16.9429 4.04188C16.98 4.09372 17 4.15577 17 4.21939C17 4.28302 16.98 4.34507 16.9429 4.3969C16.9058 4.44874 16.8533 4.4878 16.7928 4.50864L15.1479 5.05335C14.7858 5.17369 14.4569 5.37593 14.1869 5.64412C13.917 5.91231 13.7134 6.23912 13.5923 6.5988L13.044 8.23293C13.023 8.29305 12.9837 8.34518 12.9315 8.38207C12.8793 8.41896 12.8168 8.43879 12.7528 8.43879C12.6888 8.43879 12.6263 8.41896 12.5741 8.38207C12.5219 8.34518 12.4826 8.29305 12.4617 8.23293L11.9134 6.5988C11.7922 6.23912 11.5887 5.91231 11.3187 5.64412C11.0487 5.37593 10.7198 5.17369 10.3577 5.05335L8.71282 4.50864C8.65231 4.4878 8.59984 4.44874 8.5627 4.3969C8.52556 4.34507 8.50561 4.28302 8.50561 4.21939C8.50561 4.15577 8.52556 4.09372 8.5627 4.04188C8.59984 3.99005 8.65231 3.95099 8.71282 3.93015L10.3577 3.38544C11.093 3.14264 11.669 2.57049 11.9134 1.83998L12.4617 0.205855Z" fill="#1E1B39"/>
</svg>
