<svg width="17" height="17" viewBox="0 0 17 17" fill="none" xmlns="http://www.w3.org/2000/svg">
<path d="M13.9068 1.88794C12.6144 0.824211 11.0372 0.167357 9.37343 0V1.72563C10.6175 1.8794 11.7509 2.37487 12.6967 3.10955L13.9068 1.88794ZM15.2787 7.64573H17C16.8296 5.92864 16.1479 4.36533 15.1168 3.101L13.8982 4.31407C14.6499 5.27935 15.1269 6.43062 15.2787 7.64573ZM13.8982 12.6859L15.1168 13.9075C16.1764 12.6111 16.8315 11.0304 17 9.36281H15.2787C15.1253 10.5749 14.6484 11.723 13.8982 12.6859ZM9.37343 15.2744V17C11.0862 16.8291 12.6456 16.1457 13.9068 15.1121L12.6882 13.8905C11.7509 14.6251 10.6175 15.1206 9.37343 15.2744ZM9.37343 8.5V4.22864H7.66917V8.5H4.26065L8.5213 12.7714L12.782 8.5H9.37343ZM7.66917 15.2744V17C3.36591 16.5729 0 12.9337 0 8.5C0 4.06633 3.36591 0.427136 7.66917 0V1.72563C4.30326 2.14422 1.70426 5.01457 1.70426 8.5C1.70426 11.9854 4.30326 14.8558 7.66917 15.2744Z" fill="#1E1B39"/>
</svg>
