<svg width="15" height="15" viewBox="0 0 15 15" fill="none" xmlns="http://www.w3.org/2000/svg">
<path d="M5.61292 9.96708L6.72917 11.0833L10.6875 7.125L6.72917 3.16667L5.61292 4.28292L7.65542 6.33334H0V7.91667H7.65542L5.61292 9.96708ZM12.6667 0H1.58333C1.16341 0 0.76068 0.166816 0.463747 0.463749C0.166814 0.760682 0 1.16341 0 1.58333V4.75H1.58333V1.58333H12.6667V12.6667H1.58333V9.5H0V12.6667C0 13.0866 0.166814 13.4893 0.463747 13.7863C0.76068 14.0832 1.16341 14.25 1.58333 14.25H12.6667C13.5375 14.25 14.25 13.5375 14.25 12.6667V1.58333C14.25 0.712499 13.5375 0 12.6667 0Z" fill="#1E1B39"/>
</svg>
