<svg width="17" height="19" viewBox="0 0 17 19" fill="none" xmlns="http://www.w3.org/2000/svg">
<path d="M3.77783 15.1998H13.2223V13.2998H3.77783V15.1998Z" fill="#1E1B39"/>
<path d="M13.2223 11.4H3.77783V9.5H13.2223V11.4Z" fill="#1E1B39"/>
<path d="M3.77783 7.6002H7.55561V5.7002H3.77783V7.6002Z" fill="#1E1B39"/>
<path fill-rule="evenodd" clip-rule="evenodd" d="M2.83333 0C1.26853 0 0 1.27599 0 2.85V16.15C0 17.7241 1.26853 19 2.83333 19H14.1667C15.7315 19 17 17.7241 17 16.15V6.65C17 2.97731 14.0401 0 10.3889 0H2.83333ZM2.83333 1.9H9.44444V6.65H15.1111V16.15C15.1111 16.6747 14.6883 17.1 14.1667 17.1H2.83333C2.31174 17.1 1.88889 16.6747 1.88889 16.15V2.85C1.88889 2.32533 2.31174 1.9 2.83333 1.9ZM11.3333 1.99502C12.8551 2.30574 14.1112 3.35261 14.7182 4.75H11.3333V1.99502Z" fill="#1E1B39"/>
</svg>
