<svg width="51" height="54" viewBox="0 0 51 54" fill="none" xmlns="http://www.w3.org/2000/svg">
<path d="M10.9838 37.5993L33.1649 42.8756L34.2201 38.4394L12.0391 33.1631L10.9838 37.5993Z" fill="#9810FA" fill-opacity="0.5"/>
<path d="M35.2752 34.0045L13.0941 28.7282L14.1494 24.292L36.3305 29.5683L35.2752 34.0045Z" fill="#9810FA" fill-opacity="0.5"/>
<path d="M15.2045 19.8561L24.0769 21.9667L25.1322 17.5305L16.2598 15.4199L15.2045 19.8561Z" fill="#9810FA" fill-opacity="0.5"/>
<path fill-rule="evenodd" clip-rule="evenodd" d="M17.2071 1.5829C13.532 0.708691 9.84404 2.97925 8.96983 6.65432L1.58296 37.7078C0.708721 41.383 2.97931 45.0708 6.65438 45.9451L33.2717 52.2767C36.9469 53.1509 40.6347 50.8804 41.5089 47.2052L46.7852 25.0242C48.8251 16.449 43.5271 7.84381 34.9519 5.80397L17.2071 1.5829ZM16.1518 6.01912L31.6785 9.71255L29.0404 20.8031L42.349 23.9689L37.0727 46.15C36.7813 47.375 35.552 48.1319 34.3269 47.8405L7.70965 41.5088C6.48463 41.2174 5.72776 39.9882 6.01917 38.7631L13.406 7.70959C13.6974 6.48457 14.9268 5.72772 16.1518 6.01912ZM36.062 10.9897C39.4634 12.5654 41.8321 15.7114 42.4816 19.3132L34.5319 17.4221L36.062 10.9897Z" fill="#9810FA" fill-opacity="0.5"/>
</svg>
